<svg width="354" height="58" viewBox="0 0 354 58" fill="none" xmlns="http://www.w3.org/2000/svg">
<path d="M0.28 57V50.04L36.44 5.88L37.64 9.8H0.84V0.999996H47V7.96L10.84 52.12L9.56 48.2H48.04V57H0.28ZM67.1669 24.28H95.0069V32.84H67.1669V24.28ZM67.9669 48.28H99.5669V57H57.5669V0.999996H98.4469V9.72H67.9669V48.28ZM111.161 57V0.999996H121.561V48.2H150.841V57H111.161ZM159.051 57V0.999996H169.451V48.2H198.731V57H159.051ZM232.166 57.8C227.793 57.8 223.766 57.08 220.086 55.64C216.406 54.2 213.206 52.2 210.486 49.64C207.766 47.0267 205.66 43.9867 204.166 40.52C202.673 37 201.926 33.16 201.926 29C201.926 24.84 202.673 21.0267 204.166 17.56C205.66 14.04 207.766 11 210.486 8.44C213.206 5.82666 216.406 3.8 220.086 2.36C223.766 0.919997 227.766 0.199997 232.086 0.199997C236.46 0.199997 240.46 0.919997 244.086 2.36C247.766 3.8 250.966 5.82666 253.686 8.44C256.406 11 258.513 14.04 260.006 17.56C261.5 21.0267 262.246 24.84 262.246 29C262.246 33.16 261.5 37 260.006 40.52C258.513 44.04 256.406 47.08 253.686 49.64C250.966 52.2 247.766 54.2 244.086 55.64C240.46 57.08 236.486 57.8 232.166 57.8ZM232.086 48.68C234.913 48.68 237.526 48.2 239.926 47.24C242.326 46.28 244.406 44.92 246.166 43.16C247.926 41.3467 249.286 39.2667 250.246 36.92C251.26 34.52 251.766 31.88 251.766 29C251.766 26.12 251.26 23.5067 250.246 21.16C249.286 18.76 247.926 16.68 246.166 14.92C244.406 13.1067 242.326 11.72 239.926 10.76C237.526 9.8 234.913 9.32 232.086 9.32C229.26 9.32 226.646 9.8 224.246 10.76C221.9 11.72 219.82 13.1067 218.006 14.92C216.246 16.68 214.86 18.76 213.846 21.16C212.886 23.5067 212.406 26.12 212.406 29C212.406 31.8267 212.886 34.44 213.846 36.84C214.86 39.24 216.246 41.3467 218.006 43.16C219.766 44.92 221.846 46.28 224.246 47.24C226.646 48.2 229.26 48.68 232.086 48.68ZM284.751 57L266.191 0.999996H276.991L293.551 51.64H288.191L305.391 0.999996H314.991L331.711 51.64H326.511L343.471 0.999996H353.391L334.831 57H323.791L308.511 11.32H311.391L295.871 57H284.751Z" fill="white"/>
</svg>
